<svg xmlns="http://www.w3.org/2000/svg" width="160" height="42" viewBox="0 0 160 42" fill="none"><g clip-path="url(#clip0_1_39)"><path d="M38.3584 0V30.9147H32.3616V36.9799H0V6.05879H6V0H38.3584Z" fill="#FF5600"></path><path d="M6 30.9179V6.05878H14.6112L18.864 27.7204H19.4976L23.7504 6.05878H32.3616V30.9147H27.8624V9.50524H27.2288L23.0112 30.9179H15.3504L11.1328 9.50524H10.4992V30.9179H6Z" fill="#25282A"></path><path d="M53.0976 30.9179L59.424 22.0399L53.168 13.3041H58.3008L62.272 19.1624H62.9056L66.8768 13.3041H72.0096L65.7536 22.0399L72.08 30.9179H66.8768L62.9056 24.9884H62.272L58.3008 30.9179H53.0976Z" fill="#25282A"></path><path d="M76.2592 11.2446C75.4624 11.2446 74.7872 10.986 74.2368 10.4622C73.6864 9.9417 73.4112 9.25629 73.4112 8.40276C73.4112 7.54922 73.6864 6.86381 74.2368 6.34329C74.7872 5.82276 75.4624 5.56088 76.2592 5.56088C77.056 5.56088 77.76 5.82276 78.2976 6.34329C78.8352 6.86381 79.1072 7.54922 79.1072 8.40276C79.1072 9.25629 78.8384 9.9417 78.2976 10.4622C77.7568 10.9828 77.0784 11.2446 76.2592 11.2446ZM74.0448 30.9179V13.3041H78.4736V30.9179H74.0448Z" fill="#25282A"></path><path d="M81.8464 30.9179V6.05878H92.5312C94.0768 6.05878 95.424 6.33036 96.5728 6.87675C97.7216 7.42314 98.6112 8.18937 99.2448 9.18516C99.8784 10.181 100.195 11.3513 100.195 12.6995V13.1263C100.195 14.6167 99.8432 15.8259 99.1424 16.7473C98.4384 17.6688 97.5712 18.3445 96.5408 18.7712V19.4114C97.4784 19.4599 98.2048 19.7832 98.72 20.3878C99.2352 20.9924 99.4944 21.7909 99.4944 22.7835V30.9147H94.8544V23.456C94.8544 22.8869 94.7072 22.4246 94.416 22.0722C94.1216 21.7166 93.6352 21.5388 92.9568 21.5388H86.4896V30.9147H81.8496L81.8464 30.9179ZM86.4864 17.2808H92.0384C93.1392 17.2808 94 16.9801 94.6208 16.3755C95.2416 15.7709 95.552 14.9724 95.552 13.9798V13.6242C95.552 12.6284 95.248 11.8298 94.6368 11.2285C94.0256 10.6239 93.1616 10.3232 92.0352 10.3232H86.4832V17.284L86.4864 17.2808Z" fill="#25282A"></path><path d="M108.208 31.4126C106.966 31.4126 105.853 31.1927 104.87 30.7563C103.885 30.3198 103.107 29.6796 102.534 28.839C101.958 27.9984 101.674 26.9736 101.674 25.7676C101.674 24.5617 101.958 23.5497 102.534 22.7318C103.107 21.9138 103.904 21.2995 104.925 20.8857C105.946 20.4718 107.11 20.2649 108.422 20.2649H113.203V19.2691C113.203 18.4415 112.944 17.7593 112.429 17.2258C111.914 16.6924 111.094 16.4273 109.968 16.4273C108.842 16.4273 108.045 16.6827 107.507 17.1903C106.966 17.7011 106.618 18.3574 106.451 19.1624L102.374 17.7787C102.656 16.8799 103.107 16.0555 103.728 15.3118C104.349 14.565 105.181 13.9636 106.224 13.5013C107.267 13.039 108.538 12.8094 110.038 12.8094C112.336 12.8094 114.15 13.3914 115.485 14.5488C116.819 15.7095 117.488 17.3907 117.488 19.5924V26.1621C117.488 26.8733 117.814 27.229 118.474 27.229H119.878V30.9211H116.925C116.058 30.9211 115.344 30.7078 114.781 30.281C114.218 29.8542 113.936 29.2852 113.936 28.5772V28.5416H113.267C113.174 28.8261 112.963 29.1979 112.634 29.6602C112.304 30.1226 111.789 30.5299 111.088 30.8856C110.384 31.2412 109.424 31.419 108.205 31.419L108.208 31.4126ZM108.982 27.7915C110.224 27.7915 111.238 27.4423 112.022 26.744C112.806 26.0457 113.2 25.1178 113.2 23.9571V23.6015H108.736C107.917 23.6015 107.27 23.7793 106.803 24.1349C106.333 24.4905 106.099 24.9884 106.099 25.6254C106.099 26.2623 106.346 26.786 106.838 27.1869C107.331 27.5911 108.045 27.7915 108.982 27.7915ZM107.542 11.3158L110.144 6.05878H115.136L111.411 11.3158H107.546H107.542Z" fill="#25282A"></path><path d="M123.322 30.9179V16.9963H118.893V13.3041H123.322V10.0387C123.322 8.83277 123.68 7.86608 124.394 7.14511C125.107 6.42413 126.038 6.06203 127.187 6.06203H131.405V9.7542H128.733C128.077 9.7542 127.747 10.1098 127.747 10.8179V13.3041H134.778V16.9963H127.747V30.9179H123.318H123.322ZM136.995 11.3869C136.198 11.3869 135.523 11.125 134.973 10.6045C134.422 10.084 134.147 9.39856 134.147 8.54503C134.147 7.6915 134.422 7.00609 134.973 6.48556C135.523 5.96503 136.195 5.70316 136.995 5.70316C137.795 5.70316 138.496 5.96503 139.034 6.48556C139.571 7.00609 139.843 7.6915 139.843 8.54503C139.843 9.39856 139.574 10.084 139.034 10.6045C138.493 11.125 137.814 11.3869 136.995 11.3869ZM134.781 30.9179V13.3041H139.21V30.9179H134.781Z" fill="#25282A"></path><path d="M148.134 31.4126C146.893 31.4126 145.779 31.1927 144.797 30.7563C143.811 30.3198 143.034 29.6796 142.461 28.839C141.885 27.9984 141.6 26.9736 141.6 25.7676C141.6 24.5617 141.885 23.5497 142.461 22.7318C143.034 21.9138 143.83 21.2995 144.851 20.8857C145.872 20.4718 147.037 20.2649 148.349 20.2649H153.13V19.2691C153.13 18.4415 152.87 17.7593 152.355 17.2258C151.84 16.6924 151.021 16.4273 149.894 16.4273C148.768 16.4273 147.971 16.6827 147.434 17.1903C146.893 17.7011 146.544 18.3574 146.378 19.1624L142.301 17.7787C142.582 16.8799 143.034 16.0555 143.654 15.3119C144.275 14.565 145.107 13.9637 146.15 13.5013C147.194 13.039 148.464 12.8094 149.965 12.8094C152.262 12.8094 154.077 13.3914 155.411 14.5488C156.746 15.7095 157.414 17.3907 157.414 19.5924V26.1621C157.414 26.8733 157.741 27.229 158.4 27.229H159.805V30.9211H156.851C155.984 30.9211 155.27 30.7078 154.707 30.281C154.144 29.8542 153.862 29.2852 153.862 28.5772V28.5416H153.194C153.101 28.8261 152.89 29.1979 152.56 29.6602C152.23 30.1226 151.715 30.5299 151.014 30.8856C150.31 31.2412 149.35 31.419 148.131 31.419L148.134 31.4126ZM148.909 27.7915C150.15 27.7915 151.165 27.4424 151.949 26.744C152.733 26.0457 153.126 25.1178 153.126 23.9571V23.6015H148.662C147.843 23.6015 147.197 23.7793 146.73 24.1349C146.259 24.4906 146.026 24.9885 146.026 25.6254C146.026 26.2623 146.272 26.786 146.765 27.1869C147.258 27.5911 147.971 27.7915 148.909 27.7915Z" fill="#25282A"></path><path d="M41.1488 31.4126C39.9072 31.4126 38.7936 31.1927 37.8112 30.7563C36.8256 30.3198 36.048 29.6796 35.4752 28.839C34.9024 27.9984 34.6144 26.9736 34.6144 25.7676C34.6144 24.5617 34.9024 23.5497 35.4752 22.7318C36.048 21.9138 36.8448 21.2995 37.8656 20.8857C38.8864 20.4718 40.0512 20.2649 41.3632 20.2649H46.144V19.2691C46.144 18.4415 45.8848 17.7593 45.3696 17.2258C44.8544 16.6924 44.0352 16.4273 42.9088 16.4273C41.7824 16.4273 40.9888 16.6827 40.448 17.1903C39.9072 17.7011 39.5584 18.3574 39.392 19.1624L35.3152 17.7787C35.5968 16.8799 36.048 16.0555 36.6688 15.3119C37.2896 14.565 38.1216 13.9637 39.1648 13.5013C40.208 13.039 41.4784 12.8094 42.9792 12.8094C45.2768 12.8094 47.0912 13.3914 48.4256 14.5488C49.76 15.7095 50.4288 17.3907 50.4288 19.5924V26.1621C50.4288 26.8733 50.7552 27.229 51.4144 27.229H52.8192V30.9211H49.8656C48.9984 30.9211 48.2848 30.7078 47.7216 30.281C47.1584 29.8542 46.8768 29.2852 46.8768 28.5772V28.5416H46.208C46.1152 28.8261 45.904 29.1979 45.5744 29.6602C45.2448 30.1226 44.7296 30.5299 44.0288 30.8856C43.3248 31.2412 42.3648 31.419 41.1456 31.419L41.1488 31.4126ZM41.9232 27.7915C43.1648 27.7915 44.1792 27.4424 44.9632 26.744C45.7472 26.0457 46.1408 25.1178 46.1408 23.9571V23.6015H41.6768C40.8576 23.6015 40.2112 23.7793 39.744 24.1349C39.2736 24.4906 39.04 24.9885 39.04 25.6254C39.04 26.2623 39.2864 26.786 39.7792 27.1869C40.272 27.5911 40.9856 27.7915 41.9232 27.7915Z" fill="#25282A"></path><path d="M52.816 41.5095V36.9832H53.904V41.5095H52.816Z" fill="#25282A"></path><path d="M58.7104 36.9832H59.7984V41.5095H58.8384L56.56 38.8195V41.5095H55.472V36.9832H56.432L58.7104 39.6795V36.9832Z" fill="#25282A"></path><path d="M62.7456 36.9832C64.5376 36.9832 65.4848 37.9595 65.4848 39.2463C65.4848 40.5331 64.5376 41.5095 62.7456 41.5095H61.3312V36.9832H62.7456ZM62.6432 40.5848C63.7632 40.5848 64.3968 40.1322 64.3968 39.2463C64.3968 38.3604 63.7632 37.9078 62.6432 37.9078H62.4192V40.5848H62.6432Z" fill="#25282A"></path><path d="M66.8032 39.6666V36.9832H67.8912V39.6796C67.8912 40.3391 68.2688 40.643 68.8 40.643C69.3312 40.643 69.7088 40.3391 69.7088 39.6796V36.9832H70.7968V39.6666C70.7968 40.8629 69.9584 41.6 68.8 41.6C67.6416 41.6 66.8032 40.8629 66.8032 39.6666ZM68.2112 36.6857L68.608 35.8063H70.0032L69.2608 36.6857H68.2112Z" fill="#25282A"></path><path d="M73.7632 41.6C72.7648 41.6 72.1888 41.0051 72.112 40.1192H73.1488C73.1872 40.449 73.3664 40.7077 73.7888 40.7077C74.1216 40.7077 74.3584 40.4814 74.3584 40.2098C74.3584 39.9641 74.2112 39.8024 73.9232 39.7248L73.328 39.5632C72.656 39.3821 72.1824 39.0135 72.1824 38.3023C72.1824 37.397 72.8672 36.8926 73.744 36.8926C74.6208 36.8926 75.2096 37.5328 75.2352 38.3217H74.2432C74.2304 38.0371 74.064 37.785 73.7376 37.785C73.4112 37.785 73.2512 37.9531 73.2512 38.1923C73.2512 38.4445 73.4368 38.548 73.7184 38.6256L74.2944 38.7872C75.0048 38.9877 75.4272 39.3627 75.4272 40.1192C75.4272 41.0568 74.576 41.6 73.7632 41.6Z" fill="#25282A"></path><path d="M76.3424 36.9832H79.952V37.9401H78.6912V41.5095H77.6032V37.9401H76.3424V36.9832Z" fill="#25282A"></path><path d="M82.7872 40.3132H82.3392V41.5095H81.2512V36.9832H83.4336C84.3808 36.9832 85.0848 37.7074 85.0848 38.6514C85.0848 39.3562 84.6944 39.9253 84.112 40.1774L85.328 41.5095H83.8624L82.7872 40.3132ZM83.28 39.3692C83.6832 39.3692 83.9968 39.0911 83.9968 38.6514C83.9968 38.2117 83.6832 37.9272 83.28 37.9272H82.3392V39.3692H83.28Z" fill="#25282A"></path><path d="M86.5856 41.5095V36.9832H87.6736V41.5095H86.5856Z" fill="#25282A"></path><path d="M92.1984 40.8693H90.336L90.112 41.5095H88.9344L90.8608 36.9832H91.68L93.6064 41.5095H92.4288L92.1984 40.8693ZM90.656 39.9705H91.8784L91.2704 38.2635L90.656 39.9705Z" fill="#25282A"></path><path d="M98.4224 36.9832C100.214 36.9832 101.162 37.9595 101.162 39.2463C101.162 40.5331 100.214 41.5095 98.4224 41.5095H97.008V36.9832H98.4224ZM98.32 40.5848C99.44 40.5848 100.074 40.1322 100.074 39.2463C100.074 38.3604 99.44 37.9078 98.32 37.9078H98.096V40.5848H98.32Z" fill="#25282A"></path><path d="M105.661 40.5525V41.5095H102.506V36.9832H105.635V37.9401H103.594V38.7355H105.578V39.6925H103.594V40.5525H105.661Z" fill="#25282A"></path><path d="M112.365 40.5525V41.5095H109.21V36.9832H112.339V37.9401H110.298V38.7355H112.282V39.6925H110.298V40.5525H112.365Z" fill="#25282A"></path><path d="M116.243 39.9059L118.016 36.9832H118.746V41.5095H117.696V39.3174L116.243 41.5741L114.79 39.3174V41.5095H113.741V36.9832H114.47L116.243 39.9059Z" fill="#25282A"></path><path d="M122.499 41.5095H120.278V36.9832H122.41C123.069 36.9832 123.664 37.4423 123.664 38.1341C123.664 38.5609 123.421 38.9359 123.011 39.1105C123.651 39.2334 124.029 39.5955 124.029 40.2421C124.029 40.9404 123.402 41.5095 122.499 41.5095ZM122.096 38.7678C122.416 38.7678 122.602 38.5738 122.602 38.2958C122.602 38.0436 122.39 37.8561 122.064 37.8561H121.354V38.7678H122.096ZM122.333 39.6278H121.354V40.6365H122.365C122.704 40.6365 122.941 40.4102 122.941 40.1257C122.941 39.8218 122.685 39.6278 122.333 39.6278Z" fill="#25282A"></path><path d="M128.266 40.8693H126.403L126.179 41.5095H125.002L126.928 36.9832H127.747L129.674 41.5095H128.496L128.266 40.8693ZM126.723 39.9705H127.946L127.338 38.2635L126.723 39.9705Z" fill="#25282A"></path><path d="M131.987 40.5525H133.894V41.5095H130.899V36.9832H131.987V40.5525Z" fill="#25282A"></path><path d="M138.24 40.8693H136.378L136.154 41.5095H134.976L136.902 36.9832H137.722L139.648 41.5095H138.47L138.24 40.8693ZM136.698 39.9705H137.92L137.312 38.2635L136.698 39.9705Z" fill="#25282A"></path><path d="M142.55 39.0976H145.142V39.1881C145.142 40.5848 144.208 41.6 142.8 41.6C141.309 41.6 140.394 40.5266 140.394 39.2463C140.394 37.966 141.322 36.8926 142.8 36.8926C143.933 36.8926 144.752 37.5328 145.04 38.548H143.965C143.773 38.16 143.414 37.8367 142.806 37.8367C141.981 37.8367 141.482 38.4251 141.482 39.2463C141.482 40.1516 141.987 40.6883 142.794 40.6883C143.382 40.6883 143.786 40.3908 143.952 39.9964H142.55V39.0976Z" fill="#25282A"></path><path d="M149.642 40.5525V41.5095H146.486V36.9832H149.616V37.9401H147.574V38.7355H149.558V39.6925H147.574V40.5525H149.642Z" fill="#25282A"></path><path d="M154.253 36.9832H155.341V41.5095H154.381L152.102 38.8195V41.5095H151.014V36.9832H151.974L154.253 39.6795V36.9832Z" fill="#25282A"></path><path d="M158.336 41.6C157.338 41.6 156.762 41.0051 156.685 40.1192H157.722C157.76 40.449 157.939 40.7077 158.362 40.7077C158.694 40.7077 158.931 40.4814 158.931 40.2098C158.931 39.9641 158.784 39.8024 158.496 39.7248L157.901 39.5632C157.229 39.3821 156.755 39.0135 156.755 38.3023C156.755 37.397 157.44 36.8926 158.317 36.8926C159.194 36.8926 159.782 37.5328 159.808 38.3217H158.816C158.803 38.0371 158.637 37.785 158.31 37.785C157.984 37.785 157.824 37.9531 157.824 38.1923C157.824 38.4445 158.01 38.548 158.291 38.6256L158.867 38.7872C159.578 38.9877 160 39.3627 160 40.1192C160 41.0568 159.149 41.6 158.336 41.6Z" fill="#25282A"></path></g><defs><clipPath id="clip0_1_39"><rect width="160" height="41.6" fill="white"></rect></clipPath></defs></svg>